. 
  
http://www.torrentday.com   -    Your Key To The Scene.

Now TvTeam with [No-RAR] Releases.

(((((((((((((= Enjoy No RAR releases =))))))))))))))))))))

...................................NFO:....................................

.
                                                     
                                                   
                                                         
                                                          
                                                           
                                                          
                                                          
                                                          
                                                           
                                                         
                                                          
                                                        
                                                      
                                     
                                                 
                                                   
                                             
                                              
                                                     
                                                      
                                                      
                                                      
                                                    
                                                     
                                                   
                                                     
                                                     
                                                      
                                                     
                                                      
                                                    
                 ARTiCHOKE                        
                                                
                      
                                                        
                                                      
                                                      
                                               
                                          
                                                   
                                            
                                                    
                                                       
                                                        
                                                      
                                                
                                                        
                                                 
                                              
                                                  
                                                
                                                  
                                        

      
                                
      SPRiNTER proudly presents...     
                                
      
 
 Villa.Amalia.2009.PROPER.DVDRip.XviD-SPRiNTER  http://www.imdb.com/title/tt1348327/
 Audio: French
 Subtitles: English, Chinese.

 Date: 2010.03

 Director: Benot Jacquot
 Plot: Villa Amalia is the story of Ann, a musician, whose life is turned upside down by a kiss. When she sees Thomas kissing another woman, Ann makes a clean break, leaving him and everything else far behind her. Suddenly unsure of everything that seemed so certain, Ann knows only that she must change her life and become someone else to find herself. With her music and the friendship of Georges, who pops out of her distant past, she sets off on a journey that will take her to an island where the Villa Amalia stands.
 Genre: Drama

 Cast

	Isabelle Huppert	 ...	Ann
	Jean-Hugues Anglade	 ...	Georges
	Xavier Beauvois	 	 ...	Thomas
	Maya Sansa		 ...	Giula
	Clara Bindi		 ...	Marion
	Viviana Aliberti	 ...	Veri
	Michelle Marquais	 ...	La mre d'Ann
	Peter Arens	 	 ...	Le pre d'Ann
	Ignazio Oliva	 	 ...	Carlo

      
                 
      Proper notes      
                 
      

 The other release had bad ivtc and missing frames.

 Enjoy!


      
           
     Greetings    
           
      


NTX aAF FiCO HNR CiNEFiLE AEN HUMANiSM MOViERUSH


      
           
      Details     
           
      

Format                           : AVI
Format/Info                      : Audio Video Interleave
File size                        : 701 MiB
Duration                         : 1h 30mn
Overall bit rate                 : 1 082 Kbps
Writing application              : VirtualDubMod 1.5.10.2 (build 2540/release)
Writing library                  : VirtualDubMod build 2540/release

Video
ID                               : 0
Format                           : MPEG-4 Visual
Format profile                   : AdvancedSimple@L5
Format settings, BVOP            : Yes
Format settings, QPel            : No
Format settings, GMC             : No warppoints
Format settings, Matrix          : Default (H.263)
Codec ID                         : XVID
Codec ID/Hint                    : XviD
Duration                         : 1h 30mn
Bit rate                         : 940 Kbps
Width                            : 608 pixels
Height                           : 320 pixels
Display aspect ratio             : 1.900
Frame rate                       : 25.000 fps
Resolution                       : 24 bits
Colorimetry                      : 4:2:0
Scan type                        : Progressive
Bits/(Pixel*Frame)               : 0.193
Stream size                      : 608 MiB (87%)
Writing library                  : XviD 1.2.1 (UTC 2008-12-04)

Audio
ID                               : 1
Format                           : MPEG Audio
Format version                   : Version 1
Format profile                   : Layer 3
Codec ID                         : 55
Codec ID/Hint                    : MP3
Duration                         : 1h 30mn
Bit rate mode                    : Variable
Bit rate                         : 130 Kbps
Minimum bit rate                 : 128 Kbps
Channel(s)                       : 2 channels
Sampling rate                    : 48.0 KHz
Resolution                       : 16 bits
Stream size                      : 84.2 MiB (12%)
Alignment                        : Aligned on interleaves
Interleave, duration             : 24 ms (0.60 video frame)
Interleave, preload duration     : 496 ms
Writing library                  : LAME3.95 
Encoding settings                : -m j -V 4 -q 3 -lowpass 18 --vbr-old -b 128